<svg width="440" height="88" viewBox="0 0 440 88" fill="none" xmlns="http://www.w3.org/2000/svg">
  <rect width="440" height="88" rx="20" fill="#F8F3EB"/>
  <path d="M44 52C49.2 40 58.4 31.2 71.6 26C69.2 37.8 62 49.2 50.4 58.4C47.2 60.8 43.2 62.8 38.4 64.4C39.2 60 41.2 55.6 44 52Z" fill="#7D957F"/>
  <path d="M60.8 54C63.2 42.4 70 33.2 81.6 26.8C84.4 38.4 82 49.6 74 60.4C71.2 64 67.6 67.2 63.2 69.6C60.8 64.8 60 59.6 60.8 54Z" fill="#9CAF88"/>
  <path d="M76.4 53.2C75.6 42.8 79.2 33.2 87.2 24.4C94 33.6 97.2 43.6 96.4 54.8C96 59.6 94.8 64.4 92.4 69.2C87.6 66.8 82.4 61.6 76.4 53.2Z" fill="#D4B06A"/>
  <path d="M92.8 54C90.4 42.4 92.8 31.6 100.4 21.6C111.2 28.8 117.6 38 119.6 49.6C120.4 54.4 120 59.6 118.4 65.2C113.2 63.6 108.4 60.8 103.6 56.8L92.8 54Z" fill="#7D957F"/>
  <text x="140" y="38" fill="#25302A" font-family="Georgia, serif" font-size="24" letter-spacing="1.2">LOTUS</text>
  <text x="140" y="61" fill="#6B6E63" font-family="Arial, sans-serif" font-size="12" letter-spacing="2.4">AESTHETICS &amp; WELLNESS</text>
</svg>
