<svg width="720" height="560" viewBox="0 0 720 560" fill="none" xmlns="http://www.w3.org/2000/svg">
  <rect width="720" height="560" rx="32" fill="#F6F1E7"/>
  <circle cx="520" cy="154" r="112" fill="#E0E6D8"/>
  <rect x="98" y="124" width="232" height="286" rx="28" fill="#FEFDFC"/>
  <circle cx="214" cy="212" r="58" fill="#9FB08F"/>
  <path d="M160 346C160 301.817 195.817 266 240 266H246C290.183 266 326 301.817 326 346V382H160V346Z" fill="#D1B06F"/>
  <rect x="376" y="190" width="220" height="20" rx="10" fill="#7D957F"/>
  <rect x="376" y="234" width="190" height="14" rx="7" fill="#BBC5AF"/>
  <rect x="376" y="268" width="206" height="14" rx="7" fill="#BBC5AF"/>
  <rect x="376" y="302" width="164" height="14" rx="7" fill="#BBC5AF"/>
  <rect x="376" y="354" width="168" height="48" rx="16" fill="#EEE1C7"/>
  <text x="404" y="385" fill="#25302A" font-family="Arial, sans-serif" font-size="18">Physician-led care</text>
</svg>
