<svg width="128" height="128" viewBox="0 0 128 128" fill="none" xmlns="http://www.w3.org/2000/svg">
  <rect width="128" height="128" rx="28" fill="#F8F3EB"/>
  <path d="M30 78C38 58 52 44 72 36C68 54 57 71 39 86C34 90 28 94 20 97C21 90 24 84 30 78Z" fill="#7D957F"/>
  <path d="M56 80C60 61 71 47 90 37C95 56 91 74 78 92C73 98 67 104 60 108C56 100 54 90 56 80Z" fill="#D4B06A"/>
  <path d="M72 78C70 61 76 46 88 32C101 46 107 62 105 82C104 89 101 97 96 106C87 102 79 93 72 78Z" fill="#9CAF88"/>
</svg>
